<svg version="1.1" xmlns="http://www.w3.org/2000/svg" xmlns:xlink="http://www.w3.org/1999/xlink" x="0px" y="0px" viewBox="0 0 512 512" style="enable-background:new 0 0 512 512;" xml:space="preserve">
<g id="E421_x2C__Back_x2C__buttons_x2C__multimedia_x2C__play_x2C__stop">
<circle style="fill: rgb(235, 241, 254);" cx="256" cy="256" r="230" id="id_105"></circle>
<path style="fill: rgb(235, 241, 254);" d="M256,496c-64.108,0-124.378-24.964-169.707-70.293C40.964,380.379,16,320.108,16,256
		S40.964,131.622,86.293,86.293C131.622,40.964,191.892,16,256,16s124.379,24.964,169.707,70.293
		C471.036,131.622,496,191.892,496,256s-24.964,124.379-70.293,169.707C380.379,471.036,320.108,496,256,496z M256,36
		C134.691,36,36,134.691,36,256s98.691,220,220,220s220-98.691,220-220S377.309,36,256,36z" id="id_106"></path>
<path style="fill: rgb(42, 53, 61);" d="M346,266H176c-5.523,0-10-4.478-10-10c0-5.523,4.477-10,10-10h170c5.522,0,10,4.477,10,10
		C356,261.522,351.522,266,346,266z" id="id_107"></path>
<path style="fill: rgb(42, 53, 61);" d="M226,316c-2.559,0-5.119-0.977-7.071-2.929l-50-50c-3.905-3.905-3.905-10.237,0-14.143l50-50
		c3.905-3.905,10.237-3.905,14.143,0c3.905,3.905,3.905,10.237,0,14.143L190.142,256l42.929,42.929
		c3.905,3.905,3.905,10.237,0,14.143C231.119,315.023,228.559,316,226,316z" id="id_108"></path>
</g>
<g id="Layer_1">
</g>
</svg>